<svg width="812" height="245" viewBox="0 0 812 245" fill="none" xmlns="http://www.w3.org/2000/svg">
<path d="M184.8 0.34375C185.001 0.108469 185.373 0.35273 185.236 0.630859C167.37 36.9164 149.503 73.2018 131.637 109.487C147.672 109.499 163.706 109.512 179.741 109.524C179.871 109.524 179.928 109.649 179.843 109.747C148.499 145.899 117.155 182.051 85.8115 218.203C78.6743 226.435 71.5366 234.667 64.3994 242.899C64.0893 243.516 63.7798 244.134 63.4697 244.751C63.3132 244.672 63.1565 244.593 63 244.515C62.7956 244.751 62.3904 244.557 62.5303 244.278L78.2139 213.187C91.3133 187.217 104.411 161.247 117.511 135.278C101.619 135.266 85.7274 135.254 69.8359 135.242C69.4541 135.242 69.2869 134.878 69.5352 134.588C107.957 89.84 146.378 45.0916 184.8 0.34375ZM55.7324 20.2734H20.8301V224.756H55.7324V244.515H0V0.514648H55.7324V20.2734ZM249 244.515H195.144V224.756H228.17V20.2734H195.144V0.514648H249V244.515Z" fill="#F4F3F2"/>
<path d="M298.505 199.5V173.035L364.865 95.615C367.893 92.06 370.922 88.505 373.95 84.95C377.11 81.395 380.533 77.84 384.22 74.285V69.545H305.615V45.45H421.745V71.915L354.99 149.532C352.093 152.956 349.065 156.445 345.905 160C342.745 163.555 339.322 167.11 335.635 170.665V175.405H423.325V199.5H298.505ZM475.511 202.067C464.715 202.067 455.761 199.434 448.651 194.167C441.541 188.901 436.209 181.593 432.654 172.245C429.23 162.897 427.519 152.166 427.519 140.053C427.519 127.676 429.296 116.879 432.851 107.662C436.406 98.4458 441.739 91.27 448.849 86.135C455.959 81 464.846 78.4325 475.511 78.4325C483.938 78.4325 490.785 80.1442 496.051 83.5675C501.45 86.8592 505.465 91.1383 508.099 96.405H512.839V81H539.699V199.5H512.839V184.095H508.099C505.465 188.967 501.515 193.18 496.249 196.735C490.982 200.29 484.07 202.067 475.511 202.067ZM482.621 180.738C491.18 180.738 497.96 177.117 502.964 169.875C508.099 162.502 510.666 152.627 510.666 140.25C510.666 127.873 508.099 118.064 502.964 110.822C497.96 103.449 491.18 99.7625 482.621 99.7625C474.853 99.7625 468.73 103.186 464.254 110.033C459.909 116.879 457.736 126.952 457.736 140.25C457.736 153.548 459.909 163.621 464.254 170.467C468.73 177.314 474.853 180.738 482.621 180.738ZM562.812 199.5V81H589.475V102.33H594.215C595.005 98.5117 596.453 94.8908 598.56 91.4675C600.667 88.0442 603.958 85.2792 608.435 83.1725C612.912 80.9342 618.902 79.815 626.407 79.815H632.135V106.477H624.235C612.912 106.477 604.682 109.374 599.547 115.167C594.544 120.961 592.042 129.717 592.042 141.435V199.5H562.812ZM646.164 239V81H673.024V96.405H677.764C680.397 91.5333 684.347 87.32 689.614 83.765C695.012 80.21 702.122 78.4325 710.944 78.4325C721.609 78.4325 730.43 81.0658 737.409 86.3325C744.387 91.5992 749.654 98.9067 753.209 108.255C756.764 117.472 758.541 128.202 758.541 140.447C758.541 152.692 756.764 163.489 753.209 172.837C749.654 182.054 744.321 189.23 737.211 194.365C730.233 199.5 721.543 202.067 711.141 202.067C703.373 202.067 696.987 200.619 691.984 197.722C686.98 194.826 683.03 190.942 680.134 186.07H675.394V239H646.164ZM703.241 180.738C711.141 180.738 717.264 177.314 721.609 170.467C725.954 163.621 728.126 153.548 728.126 140.25C728.126 126.952 725.954 116.879 721.609 110.033C717.264 103.186 711.141 99.7625 703.241 99.7625C694.683 99.7625 687.902 103.449 682.899 110.822C677.895 118.064 675.394 127.873 675.394 140.25C675.394 152.627 677.895 162.502 682.899 169.875C687.902 177.117 694.683 180.738 703.241 180.738Z" fill="#F4F3F2"/>
<path d="M798.938 55L788.75 32H792.875L800 48.875L807.125 32H811.25L801.063 55H798.938ZM788 55V32H792V55H788ZM808 55V32H812V55H808ZM773 55V34H777V55H773ZM766 35.5V32H784V35.5H766Z" fill="#F4F3F2"/>
</svg>
